<svg xmlns="http://www.w3.org/2000/svg" width="1600" height="520" viewBox="0 0 1600 520">
    <defs>
      <linearGradient id="bg" x1="0" y1="0" x2="1" y2="1"><stop stop-color="#03101e"/><stop offset=".58" stop-color="#071827"/><stop offset="1" stop-color="#0d47a1"/></linearGradient>
      <pattern id="g" width="48" height="48" patternUnits="userSpaceOnUse"><path d="M48 0H0V48" fill="none" stroke="#55dcff" stroke-opacity=".055"/></pattern>
    </defs>
    <rect width="1600" height="520" fill="url(#bg)"/><rect width="1600" height="520" fill="url(#g)"/>
    <path d="M980 0 L1600 0 L1600 520 L1160 520 L1015 380 L1090 260Z" fill="#e31b23" opacity=".16"/>
    <path d="M1120 65 L1420 130 L1360 410 L1070 350Z" fill="none" stroke="#e31b23" stroke-opacity=".32" stroke-width="6"/>
    <circle cx="1270" cy="250" r="112" fill="#0d47a1" opacity=".30"/><circle cx="1270" cy="250" r="78" fill="#06111f" opacity=".7"/>
    <text x="1270" y="278" text-anchor="middle" fill="#ffffff" font-family="Arial,Helvetica,sans-serif" font-size="74" font-weight="900">M</text>
    <path d="M0 0H230" stroke="#43e1ff" stroke-width="5"/>
    <text x="66" y="112" fill="#4ee1ff" font-family="Arial,Helvetica,sans-serif" font-size="18" font-weight="700" letter-spacing="5">MLBB REGION // SURAE</text>
    <text x="66" y="220" fill="#ffffff" font-family="Arial,Helvetica,sans-serif" font-size="58" font-weight="900" letter-spacing="2">MALAYSIA</text>
    <text x="68" y="274" fill="#e31b23" font-family="Arial,Helvetica,sans-serif" font-size="23" font-weight="800" letter-spacing="6">MY SERVER</text>
    <text x="68" y="344" fill="#87a9ba" font-family="Arial,Helvetica,sans-serif" font-size="18" letter-spacing="4">KUALA LUMPUR // SEA</text>
    <path d="M68 390 H630" stroke="#54dfff" stroke-opacity=".20"/>
    <text x="68" y="438" fill="#63879a" font-family="Arial,Helvetica,sans-serif" font-size="15" letter-spacing="3">SELECT THIS REGION TO CONTINUE</text>
    </svg>